<svg xmlns="http://www.w3.org/2000/svg" viewBox="0 0 542 290.67"><defs><style>.cls-1{fill:#fff;}</style></defs><title>learndash-white</title><g id="one_color" data-name="one color"><path class="cls-1" d="M52.52,189.29a27.83,27.83,0,0,1-.16,3.27,9.93,9.93,0,0,1-.49,2.21,2.86,2.86,0,0,1-.81,1.27,1.77,1.77,0,0,1-1.13.39H11.46a5.3,5.3,0,0,1-3.6-1.26A5.18,5.18,0,0,1,6.4,191V114.84a1.8,1.8,0,0,1,.42-1.17,3,3,0,0,1,1.39-.84,13.63,13.63,0,0,1,2.63-.52,35.94,35.94,0,0,1,4.12-.2,35.79,35.79,0,0,1,4.15.2,13.58,13.58,0,0,1,2.59.52,3,3,0,0,1,1.39.84,1.81,1.81,0,0,1,.42,1.17v67.51h26.4a1.87,1.87,0,0,1,1.13.36,2.61,2.61,0,0,1,.81,1.17,8.8,8.8,0,0,1,.49,2.14A27.84,27.84,0,0,1,52.52,189.29Z"/><path class="cls-1" d="M109,163.61A6.3,6.3,0,0,1,107.7,168a4.76,4.76,0,0,1-3.66,1.43H68.82a24,24,0,0,0,.88,6.71,12.8,12.8,0,0,0,2.79,5.12,12.14,12.14,0,0,0,4.93,3.21,21.1,21.1,0,0,0,7.23,1.1,40.66,40.66,0,0,0,7.52-.62,49.59,49.59,0,0,0,5.61-1.36q2.37-.74,3.92-1.36a7.29,7.29,0,0,1,2.53-.62,1.92,1.92,0,0,1,1,.23,1.7,1.7,0,0,1,.65.81,5.45,5.45,0,0,1,.36,1.65q.1,1.07.1,2.69,0,1.43-.06,2.43a15.34,15.34,0,0,1-.19,1.72,4.16,4.16,0,0,1-.39,1.2,4.5,4.5,0,0,1-.68.94,7.89,7.89,0,0,1-2.3,1.23,36.51,36.51,0,0,1-4.8,1.52,66.13,66.13,0,0,1-6.68,1.3,55.56,55.56,0,0,1-8,.55A42.58,42.58,0,0,1,69.63,196a24.07,24.07,0,0,1-9.7-5.9,24.55,24.55,0,0,1-5.8-10,46.9,46.9,0,0,1-1.91-14.14,44.92,44.92,0,0,1,2-13.91,29.16,29.16,0,0,1,5.84-10.51,25.1,25.1,0,0,1,9.31-6.58,32,32,0,0,1,12.35-2.27,32.36,32.36,0,0,1,12.42,2.14,22.41,22.41,0,0,1,8.46,5.93,24,24,0,0,1,4.86,9A39.12,39.12,0,0,1,109,161Zm-15.82-4.67q.19-6.87-2.76-10.8t-9.11-3.92a11.83,11.83,0,0,0-5.42,1.17,11.09,11.09,0,0,0-3.83,3.15,14.36,14.36,0,0,0-2.33,4.67,23.21,23.21,0,0,0-.94,5.74Z"/><path class="cls-1" d="M165.74,194.41a1.73,1.73,0,0,1-.65,1.43,4.45,4.45,0,0,1-2,.75,27.69,27.69,0,0,1-4.12.23,28.1,28.1,0,0,1-4.25-.23,3.65,3.65,0,0,1-1.88-.75,1.86,1.86,0,0,1-.55-1.43v-4.6a26.29,26.29,0,0,1-8.14,6A23.65,23.65,0,0,1,134,197.92a28.4,28.4,0,0,1-8.46-1.2,19,19,0,0,1-6.68-3.57,16.05,16.05,0,0,1-4.38-5.87,20,20,0,0,1-1.56-8.17,18.49,18.49,0,0,1,2-8.79,16.08,16.08,0,0,1,5.9-6.16,29.41,29.41,0,0,1,9.76-3.6,69.82,69.82,0,0,1,13.56-1.17h5.64v-3.5a18.43,18.43,0,0,0-.55-4.77,8,8,0,0,0-1.82-3.41,7.5,7.5,0,0,0-3.37-2,18,18,0,0,0-5.22-.65,26.83,26.83,0,0,0-7.3.91,41.93,41.93,0,0,0-5.67,2q-2.47,1.1-4.12,2a6,6,0,0,1-2.69.91,1.93,1.93,0,0,1-1.26-.45,3.29,3.29,0,0,1-.91-1.3,8.92,8.92,0,0,1-.55-2.08,17.51,17.51,0,0,1-.19-2.72,12.34,12.34,0,0,1,.32-3.18,4.88,4.88,0,0,1,1.23-2.11A12.14,12.14,0,0,1,120.8,137a37.49,37.49,0,0,1,5.32-2.11,49.36,49.36,0,0,1,6.65-1.59,48.88,48.88,0,0,1,19.07.71,19.67,19.67,0,0,1,7.94,4.09,15.89,15.89,0,0,1,4.54,7.1,33.2,33.2,0,0,1,1.43,10.31Zm-16-24.78H143.5a33.47,33.47,0,0,0-6.74.58,12.9,12.9,0,0,0-4.54,1.75,7.21,7.21,0,0,0-2.56,2.82,8.51,8.51,0,0,0-.81,3.79,7.29,7.29,0,0,0,2.3,5.71,9.2,9.2,0,0,0,6.39,2.08,12,12,0,0,0,6.32-1.75,26.25,26.25,0,0,0,5.87-5.12Z"/><path class="cls-1" d="M213.18,141.75q0,2.33-.13,3.83a11.89,11.89,0,0,1-.39,2.33,2.29,2.29,0,0,1-.68,1.17,1.7,1.7,0,0,1-1.07.32,3.55,3.55,0,0,1-1.17-.23l-1.46-.49q-.81-.26-1.78-.49a9.41,9.41,0,0,0-2.14-.23,7.24,7.24,0,0,0-2.72.55,11.52,11.52,0,0,0-2.82,1.72,20.92,20.92,0,0,0-3,3.11,50.46,50.46,0,0,0-3.4,4.8v36.06a1.76,1.76,0,0,1-.39,1.13,2.86,2.86,0,0,1-1.33.81,11.55,11.55,0,0,1-2.5.49q-1.56.16-4,.16t-4-.16a11.55,11.55,0,0,1-2.5-.49,2.86,2.86,0,0,1-1.33-.81,1.76,1.76,0,0,1-.39-1.13V136.37a2,2,0,0,1,.32-1.13,2.38,2.38,0,0,1,1.17-.81,9.34,9.34,0,0,1,2.17-.49,28.55,28.55,0,0,1,3.34-.16,30.15,30.15,0,0,1,3.44.16,7.82,7.82,0,0,1,2.11.49,2.39,2.39,0,0,1,1.07.81,2,2,0,0,1,.32,1.13v7.2a46,46,0,0,1,4.28-5.35,24.16,24.16,0,0,1,3.83-3.34,12.06,12.06,0,0,1,3.63-1.72,14,14,0,0,1,3.63-.49,18.14,18.14,0,0,1,1.82.1,17.5,17.5,0,0,1,2,.32,13.38,13.38,0,0,1,1.82.52,3.62,3.62,0,0,1,1.14.62,2,2,0,0,1,.52.71,5.71,5.71,0,0,1,.29,1.07,16,16,0,0,1,.19,2Q213.18,139.42,213.18,141.75Z"/><path class="cls-1" d="M272.49,194.22a1.76,1.76,0,0,1-.39,1.13,2.84,2.84,0,0,1-1.3.81,11,11,0,0,1-2.5.49q-1.59.16-3.92.16t-4-.16a11,11,0,0,1-2.5-.49,2.84,2.84,0,0,1-1.3-.81,1.76,1.76,0,0,1-.39-1.13v-33a27.84,27.84,0,0,0-.62-6.62,13.05,13.05,0,0,0-1.78-4.12,8,8,0,0,0-3-2.66,9.41,9.41,0,0,0-4.31-.94,10.81,10.81,0,0,0-6.29,2.27,34,34,0,0,0-6.62,6.62v38.46a1.76,1.76,0,0,1-.39,1.13,2.86,2.86,0,0,1-1.33.81,11.55,11.55,0,0,1-2.5.49q-1.56.16-4,.16t-4-.16a11.55,11.55,0,0,1-2.5-.49,2.86,2.86,0,0,1-1.33-.81,1.76,1.76,0,0,1-.39-1.13V136.37a2,2,0,0,1,.32-1.13,2.38,2.38,0,0,1,1.17-.81,9.34,9.34,0,0,1,2.17-.49,28.55,28.55,0,0,1,3.34-.16,30.15,30.15,0,0,1,3.44.16,7.82,7.82,0,0,1,2.11.49,2.39,2.39,0,0,1,1.07.81,2,2,0,0,1,.32,1.13V143a36.74,36.74,0,0,1,9.76-7.78,22.05,22.05,0,0,1,10.34-2.59,22.9,22.9,0,0,1,10,1.95,17.43,17.43,0,0,1,6.55,5.29,21.5,21.5,0,0,1,3.6,7.82,45.61,45.61,0,0,1,1.1,10.77Z"/><path class="cls-1" d="M332.68,133.84a20.78,20.78,0,0,0-7.91-5.87q-4.83-2.11-12.68-2.11h-8.63v57.07h8.89a33.53,33.53,0,0,0,11.8-1.82,19.73,19.73,0,0,0,8-5.48,23.66,23.66,0,0,0,4.8-9.11,45.6,45.6,0,0,0,1.59-12.71,42.16,42.16,0,0,0-1.39-11.09A23.64,23.64,0,0,0,332.68,133.84Z"/><path class="cls-1" d="M383.52,170.22A12.91,12.91,0,0,0,379,172a7.21,7.21,0,0,0-2.56,2.82,8.51,8.51,0,0,0-.81,3.79,7.29,7.29,0,0,0,2.3,5.71,9.2,9.2,0,0,0,6.39,2.08,12,12,0,0,0,6.32-1.75,26.24,26.24,0,0,0,5.87-5.12v-9.86h-6.23A33.48,33.48,0,0,0,383.52,170.22Z"/><path class="cls-1" d="M517.93,72.7h-223a17.67,17.67,0,0,0-17.67,17.67V216.7a17.67,17.67,0,0,0,17.67,17.67h223A17.67,17.67,0,0,0,535.6,216.7V90.36A17.67,17.67,0,0,0,517.93,72.7ZM353.18,173a33.53,33.53,0,0,1-8.66,13.39A34.71,34.71,0,0,1,330.8,194a67.13,67.13,0,0,1-19.23,2.43h-20a5.3,5.3,0,0,1-3.6-1.26,5.18,5.18,0,0,1-1.46-4.12V117.88a5.18,5.18,0,0,1,1.46-4.12,5.3,5.3,0,0,1,3.6-1.27h21.53a60.24,60.24,0,0,1,19,2.63,34.5,34.5,0,0,1,13.17,7.78,33.39,33.39,0,0,1,8.14,12.74,50.85,50.85,0,0,1,2.79,17.58Q356.19,164.78,353.18,173Zm59.34,21.44a1.73,1.73,0,0,1-.65,1.43,4.45,4.45,0,0,1-2,.75,27.71,27.71,0,0,1-4.12.23,28.1,28.1,0,0,1-4.25-.23,3.65,3.65,0,0,1-1.88-.75,1.86,1.86,0,0,1-.55-1.43v-4.6a26.29,26.29,0,0,1-8.14,6,23.65,23.65,0,0,1-10.15,2.14,28.39,28.39,0,0,1-8.46-1.2,19,19,0,0,1-6.68-3.57,16.05,16.05,0,0,1-4.38-5.87,20,20,0,0,1-1.56-8.17,18.49,18.49,0,0,1,2-8.79,16.09,16.09,0,0,1,5.9-6.16,29.42,29.42,0,0,1,9.76-3.6,69.8,69.8,0,0,1,13.55-1.17h5.64v-3.5a18.41,18.41,0,0,0-.55-4.77,7.94,7.94,0,0,0-1.82-3.41,7.5,7.5,0,0,0-3.37-2,18,18,0,0,0-5.22-.65,26.83,26.83,0,0,0-7.3.91,42,42,0,0,0-5.68,2q-2.47,1.1-4.12,2a6,6,0,0,1-2.69.91,1.93,1.93,0,0,1-1.26-.45,3.29,3.29,0,0,1-.91-1.3,8.94,8.94,0,0,1-.55-2.08,17.51,17.51,0,0,1-.19-2.72,12.34,12.34,0,0,1,.32-3.18,4.89,4.89,0,0,1,1.23-2.11,12.14,12.14,0,0,1,3.18-2.08,37.44,37.44,0,0,1,5.32-2.11,49.36,49.36,0,0,1,6.65-1.59,48.87,48.87,0,0,1,19.07.71,19.66,19.66,0,0,1,7.95,4.09,15.9,15.9,0,0,1,4.54,7.1,33.22,33.22,0,0,1,1.43,10.31Zm49.15-7.85a17.29,17.29,0,0,1-5.22,6.29,23.52,23.52,0,0,1-8,3.79,37.6,37.6,0,0,1-10,1.26,38,38,0,0,1-6.19-.49A37.59,37.59,0,0,1,427,196.2a27.67,27.67,0,0,1-3.89-1.52,9.57,9.57,0,0,1-2.27-1.46,4.51,4.51,0,0,1-1.1-2.14,17.88,17.88,0,0,1-.39-4.31,27.65,27.65,0,0,1,.13-3,7.69,7.69,0,0,1,.39-1.82,1.71,1.71,0,0,1,.65-.91,1.9,1.9,0,0,1,1-.23,4.85,4.85,0,0,1,2.11.81q1.39.81,3.47,1.78a36.76,36.76,0,0,0,4.83,1.82,21.41,21.41,0,0,0,6.26.84,15.41,15.41,0,0,0,3.92-.45,9.88,9.88,0,0,0,3-1.3,5.5,5.5,0,0,0,1.91-2.14,6.59,6.59,0,0,0,.65-3,5,5,0,0,0-1.2-3.34,10.7,10.7,0,0,0-3.18-2.43,36.67,36.67,0,0,0-4.47-1.95q-2.5-.91-5.12-2a46.49,46.49,0,0,1-5.12-2.53,19.5,19.5,0,0,1-4.48-3.5,15.91,15.91,0,0,1-3.18-5,18.38,18.38,0,0,1-1.2-7,17.76,17.76,0,0,1,1.62-7.62,16.58,16.58,0,0,1,4.67-5.93,22.13,22.13,0,0,1,7.43-3.83,33,33,0,0,1,9.83-1.36,35.13,35.13,0,0,1,5.29.39,38.82,38.82,0,0,1,4.64,1,22.11,22.11,0,0,1,3.5,1.26,11.66,11.66,0,0,1,2,1.17,3.24,3.24,0,0,1,.88,1,4.16,4.16,0,0,1,.39,1.17q.13.68.23,1.69t.1,2.5q0,1.75-.1,2.85a7.43,7.43,0,0,1-.32,1.75,1.56,1.56,0,0,1-.62.88,1.77,1.77,0,0,1-.91.23,4.41,4.41,0,0,1-1.82-.68,33.28,33.28,0,0,0-3.08-1.46,36.47,36.47,0,0,0-4.28-1.46,20.59,20.59,0,0,0-5.54-.68,14.28,14.28,0,0,0-3.83.46,7.28,7.28,0,0,0-2.66,1.3,5.46,5.46,0,0,0-1.56,2,5.76,5.76,0,0,0-.52,2.43,4.84,4.84,0,0,0,1.23,3.37,11.27,11.27,0,0,0,3.24,2.4,36.26,36.26,0,0,0,4.57,1.95q2.56.91,5.19,2a47.66,47.66,0,0,1,5.19,2.5,19.67,19.67,0,0,1,4.57,3.5,16.2,16.2,0,0,1,3.24,5,17.36,17.36,0,0,1,1.23,6.84A19.48,19.48,0,0,1,461.67,186.57ZM526,194.22a1.76,1.76,0,0,1-.39,1.13,2.84,2.84,0,0,1-1.3.81,11,11,0,0,1-2.5.49q-1.59.16-3.92.16t-4-.16a11,11,0,0,1-2.5-.49,2.84,2.84,0,0,1-1.3-.81,1.76,1.76,0,0,1-.39-1.13v-33a27.84,27.84,0,0,0-.62-6.62,13.05,13.05,0,0,0-1.78-4.12,8,8,0,0,0-3-2.66,9.41,9.41,0,0,0-4.31-.94,10.8,10.8,0,0,0-6.29,2.27,34,34,0,0,0-6.62,6.62v38.46a1.77,1.77,0,0,1-.39,1.13,2.87,2.87,0,0,1-1.33.81,11.55,11.55,0,0,1-2.5.49q-1.56.16-4,.16t-4-.16a11.54,11.54,0,0,1-2.5-.49,2.85,2.85,0,0,1-1.33-.81,1.76,1.76,0,0,1-.39-1.13V108.93a1.9,1.9,0,0,1,.39-1.17,2.91,2.91,0,0,1,1.33-.87,11.1,11.1,0,0,1,2.5-.55,40.17,40.17,0,0,1,7.91,0,11.11,11.11,0,0,1,2.5.55,2.92,2.92,0,0,1,1.33.88,1.91,1.91,0,0,1,.39,1.17v32a31.23,31.23,0,0,1,8.59-6.19,21.3,21.3,0,0,1,9.11-2,22.9,22.9,0,0,1,10,1.95,17.3,17.3,0,0,1,6.55,5.32,21.8,21.8,0,0,1,3.6,7.88,46.69,46.69,0,0,1,1.1,10.93Z"/></g></svg>